<svg xmlns="http://www.w3.org/2000/svg" width="1024" height="1024" viewBox="0 0 1024 1024">
<defs><linearGradient id="solidBg" x1="0" y1="0" x2="1" y2="1">
    <stop offset="0" stop-color="#1C1547"/><stop offset="1" stop-color="#07241D"/></linearGradient>
    
  <linearGradient id="handGrad" gradientUnits="userSpaceOnUse"
                  x1="380" y1="170" x2="620" y2="600">
    <stop offset="0"    stop-color="#8B6BFF"/>
    <stop offset="0.30" stop-color="#6A4BF5"/>
    <stop offset="0.72" stop-color="#35D9A8"/>
    <stop offset="1"    stop-color="#2EE59D"/>
  </linearGradient>
    <linearGradient id="glassFill" x1="0.05" y1="0" x2="0.85" y2="1">
      <stop offset="0"    stop-color="#FFFFFF" stop-opacity="0.26"/>
      <stop offset="0.40" stop-color="#FFFFFF" stop-opacity="0.10"/>
      <stop offset="0.75" stop-color="#35D9A8" stop-opacity="0.10"/>
      <stop offset="1"    stop-color="#6A4BF5" stop-opacity="0.16"/>
    </linearGradient>
    <linearGradient id="sweep" x1="0" y1="0" x2="0.72" y2="1">
      <stop offset="0"    stop-color="#FFFFFF" stop-opacity="0.30"/>
      <stop offset="0.22" stop-color="#FFFFFF" stop-opacity="0.12"/>
      <stop offset="0.52" stop-color="#FFFFFF" stop-opacity="0"/>
      <stop offset="1"    stop-color="#FFFFFF" stop-opacity="0"/>
    </linearGradient>
    <linearGradient id="rimGrad" x1="0.1" y1="0" x2="0.9" y2="1">
      <stop offset="0"    stop-color="#FFFFFF" stop-opacity="0.92"/>
      <stop offset="0.30" stop-color="#FFFFFF" stop-opacity="0.28"/>
      <stop offset="0.62" stop-color="#2EE59D" stop-opacity="0.45"/>
      <stop offset="1"    stop-color="#8B6BFF" stop-opacity="0.70"/>
    </linearGradient>
    <linearGradient id="innerRim" x1="0.15" y1="0" x2="0.85" y2="1">
      <stop offset="0"    stop-color="#FFFFFF" stop-opacity="0.55"/>
      <stop offset="0.35" stop-color="#FFFFFF" stop-opacity="0.05"/>
      <stop offset="1"    stop-color="#FFFFFF" stop-opacity="0"/>
    </linearGradient>
    <clipPath id="cardClip"><path d="M 296,88 H 728 A 208,208 0 0 1 936,296 V 728 A 208,208 0 0 1 728,936 H 296 A 208,208 0 0 1 88,728 V 296 A 208,208 0 0 1 296,88 Z"/></clipPath>
    <filter id="glow" x="-50%" y="-50%" width="200%" height="200%">
      <feGaussianBlur stdDeviation="40"/>
    </filter>
    <filter id="drop" x="-30%" y="-30%" width="160%" height="160%">
      <feDropShadow dx="0" dy="10" stdDeviation="16"
                    flood-color="#050B08" flood-opacity="0.45"/>
    </filter></defs>
<rect width="1024" height="1024" fill="url(#solidBg)"/>

  <g>
    <path d="M 296,88 H 728 A 208,208 0 0 1 936,296 V 728 A 208,208 0 0 1 728,936 H 296 A 208,208 0 0 1 88,728 V 296 A 208,208 0 0 1 296,88 Z" fill="url(#glassFill)"/>
    <g clip-path="url(#cardClip)">
      <ellipse cx="512" cy="620" rx="270" ry="230"
               fill="#2EE59D" opacity="0.28" filter="url(#glow)"/>
      <ellipse cx="452" cy="300" rx="210" ry="165"
               fill="#8B6BFF" opacity="0.24" filter="url(#glow)"/>
      <rect width="1024" height="1024" fill="url(#sweep)"/>
      <path d="M 296,98 H 728 A 198,198 0 0 1 926,296 V 728 A 198,198 0 0 1 728,926 H 296 A 198,198 0 0 1 98,728 V 296 A 198,198 0 0 1 296,98 Z" fill="none" stroke="url(#innerRim)" stroke-width="3"/>
    </g>
    <path d="M 296,88 H 728 A 208,208 0 0 1 936,296 V 728 A 208,208 0 0 1 728,936 H 296 A 208,208 0 0 1 88,728 V 296 A 208,208 0 0 1 296,88 Z" fill="none" stroke="url(#rimGrad)" stroke-width="5"/>
  </g>
  <g filter="url(#drop)"><g transform="scale(1)">
    <g transform="translate(167.88,196.53) scale(0.66625)"><g stroke-linecap="round" stroke-linejoin="round">
    <g fill="#221B47" stroke="#221B47">
      
    <path d="M 470,480 H 480 A 165,165 0 0 1 645,645 V 645 A 165,165 0 0 1 480,810 H 470 A 165,165 0 0 1 305,645 V 645 A 165,165 0 0 1 470,480 Z" fill="#221B47" stroke="#221B47" stroke-width="34"/>
    <path d="M 356,676 L 520,706" fill="#221B47" stroke="#221B47" stroke-width="162"/>
    <path d="M 626,452 H 626 A 54,54 0 0 1 680,506 V 598 A 54,54 0 0 1 626,652 H 626 A 54,54 0 0 1 572,598 V 506 A 54,54 0 0 1 626,452 Z" transform="rotate(8 626 552)" fill="#221B47" stroke="#221B47" stroke-width="34"/>
    <path d="M 702,496 H 702 A 50,50 0 0 1 752,546 V 618 A 50,50 0 0 1 702,668 H 702 A 50,50 0 0 1 652,618 V 546 A 50,50 0 0 1 702,496 Z" transform="rotate(14 702 582)" fill="#221B47" stroke="#221B47" stroke-width="34"/>
    <path d="M 332,222 L 450,566" fill="#221B47" stroke="#221B47" stroke-width="152"/>
    <path d="M 612,196 L 522,566" fill="#221B47" stroke="#221B47" stroke-width="152"/>
    </g>
    <g fill="url(#handGrad)" stroke="url(#handGrad)">
      
    <path d="M 470,480 H 480 A 165,165 0 0 1 645,645 V 645 A 165,165 0 0 1 480,810 H 470 A 165,165 0 0 1 305,645 V 645 A 165,165 0 0 1 470,480 Z" fill="url(#handGrad)" stroke="url(#handGrad)" stroke-width="0"/>
    <path d="M 356,676 L 520,706" fill="url(#handGrad)" stroke="url(#handGrad)" stroke-width="128"/>
    <path d="M 626,452 H 626 A 54,54 0 0 1 680,506 V 598 A 54,54 0 0 1 626,652 H 626 A 54,54 0 0 1 572,598 V 506 A 54,54 0 0 1 626,452 Z" transform="rotate(8 626 552)" fill="url(#handGrad)" stroke="url(#handGrad)" stroke-width="0"/>
    <path d="M 702,496 H 702 A 50,50 0 0 1 752,546 V 618 A 50,50 0 0 1 702,668 H 702 A 50,50 0 0 1 652,618 V 546 A 50,50 0 0 1 702,496 Z" transform="rotate(14 702 582)" fill="url(#handGrad)" stroke="url(#handGrad)" stroke-width="0"/>
    <path d="M 332,222 L 450,566" fill="url(#handGrad)" stroke="url(#handGrad)" stroke-width="118"/>
    <path d="M 612,196 L 522,566" fill="url(#handGrad)" stroke="url(#handGrad)" stroke-width="118"/>
    </g>
    <g fill="none" stroke="#221B47" stroke-width="18">
      <path d="M 626,452 H 626 A 54,54 0 0 1 680,506 V 598 A 54,54 0 0 1 626,652 H 626 A 54,54 0 0 1 572,598 V 506 A 54,54 0 0 1 626,452 Z" transform="rotate(8 626 552)"/>
      <path d="M 702,496 H 702 A 50,50 0 0 1 752,546 V 618 A 50,50 0 0 1 702,668 H 702 A 50,50 0 0 1 652,618 V 546 A 50,50 0 0 1 702,496 Z" transform="rotate(14 702 582)"/>
      <path d="M 372,644 C 448,592 548,608 568,692"/>
    </g>
  </g></g>
  </g></g>
</svg>
